<svg width="120" height="120" viewBox="0 0 120 120" fill="none" xmlns="http://www.w3.org/2000/svg">
<path d="M120 60C120 93.1371 93.1371 120 60 120C26.8629 120 0 93.1371 0 60C0 26.8629 26.8629 0 60 0C93.1371 0 120 26.8629 120 60ZM13.7927 60C13.7927 85.5196 34.4804 106.207 60 106.207C85.5196 106.207 106.207 85.5196 106.207 60C106.207 34.4804 85.5196 13.7927 60 13.7927C34.4804 13.7927 13.7927 34.4804 13.7927 60Z" fill="#D5D7DA"/>
<path d="M113.104 60C116.912 60 120.041 63.0978 119.604 66.8814C118.387 77.4219 114.39 87.4958 107.967 96.0439C100.157 106.438 89.1821 114.013 76.6945 117.631C64.2069 121.248 50.8821 120.712 38.7258 116.102C26.5695 111.492 16.2394 103.058 9.29021 92.0705C2.34106 81.0825 -0.851074 68.1347 0.194258 55.1758C1.23959 42.2169 6.46583 29.9481 15.0864 20.216C23.7069 10.484 35.2552 3.81527 47.9933 1.21362C58.4696 -0.92609 69.2843 -0.219587 79.3291 3.19864C82.9348 4.42565 84.3927 8.58002 82.7603 12.0212C81.1279 15.4624 77.0221 16.8738 73.3765 15.7712C66.073 13.5624 58.2992 13.1862 50.7534 14.7273C40.9435 16.7309 32.0499 21.8667 25.411 29.3615C18.7722 36.8564 14.7473 46.3048 13.9423 56.2848C13.1373 66.2647 15.5956 76.2361 20.9473 84.6982C26.299 93.1603 34.2544 99.6551 43.6163 103.205C52.9781 106.755 63.2398 107.168 72.8568 104.383C82.4738 101.597 90.9257 95.7626 96.9404 87.7582C101.567 81.6012 104.559 74.4163 105.694 66.871C106.26 63.1046 109.295 60 113.104 60Z" fill="#1179FC"/>
<path d="M39.848 62.748C40.008 63.548 40.352 64.156 40.88 64.572C41.408 64.988 42.12 65.196 43.016 65.196C44.152 65.196 44.984 64.748 45.512 63.852C46.04 62.956 46.304 61.428 46.304 59.268C45.92 59.812 45.376 60.236 44.672 60.54C43.984 60.828 43.232 60.972 42.416 60.972C41.376 60.972 40.432 60.764 39.584 60.348C38.736 59.916 38.064 59.284 37.568 58.452C37.088 57.604 36.848 56.58 36.848 55.38C36.848 53.62 37.36 52.22 38.384 51.18C39.424 50.124 40.848 49.596 42.656 49.596C44.832 49.596 46.376 50.324 47.288 51.78C48.216 53.22 48.68 55.436 48.68 58.428C48.68 60.492 48.504 62.18 48.152 63.492C47.816 64.804 47.224 65.796 46.376 66.468C45.528 67.14 44.352 67.476 42.848 67.476C41.136 67.476 39.816 67.028 38.888 66.132C37.96 65.236 37.44 64.108 37.328 62.748H39.848ZM42.896 58.668C43.856 58.668 44.608 58.372 45.152 57.78C45.712 57.172 45.992 56.372 45.992 55.38C45.992 54.276 45.696 53.42 45.104 52.812C44.528 52.188 43.736 51.876 42.728 51.876C41.72 51.876 40.92 52.196 40.328 52.836C39.752 53.46 39.464 54.284 39.464 55.308C39.464 56.284 39.744 57.092 40.304 57.732C40.88 58.356 41.744 58.668 42.896 58.668ZM51.6744 58.524C51.6744 55.756 52.1384 53.596 53.0664 52.044C54.0104 50.476 55.6264 49.692 57.9144 49.692C60.2024 49.692 61.8104 50.476 62.7384 52.044C63.6824 53.596 64.1544 55.756 64.1544 58.524C64.1544 61.324 63.6824 63.516 62.7384 65.1C61.8104 66.668 60.2024 67.452 57.9144 67.452C55.6264 67.452 54.0104 66.668 53.0664 65.1C52.1384 63.516 51.6744 61.324 51.6744 58.524ZM61.4664 58.524C61.4664 57.228 61.3784 56.132 61.2024 55.236C61.0424 54.34 60.7064 53.612 60.1944 53.052C59.6824 52.476 58.9224 52.188 57.9144 52.188C56.9064 52.188 56.1464 52.476 55.6344 53.052C55.1224 53.612 54.7784 54.34 54.6024 55.236C54.4424 56.132 54.3624 57.228 54.3624 58.524C54.3624 59.868 54.4424 60.996 54.6024 61.908C54.7624 62.82 55.0984 63.556 55.6104 64.116C56.1384 64.676 56.9064 64.956 57.9144 64.956C58.9224 64.956 59.6824 64.676 60.1944 64.116C60.7224 63.556 61.0664 62.82 61.2264 61.908C61.3864 60.996 61.4664 59.868 61.4664 58.524ZM66.6174 54.228C66.6174 53.06 66.9534 52.148 67.6254 51.492C68.3134 50.82 69.1934 50.484 70.2654 50.484C71.3374 50.484 72.2094 50.82 72.8814 51.492C73.5694 52.148 73.9134 53.06 73.9134 54.228C73.9134 55.396 73.5694 56.316 72.8814 56.988C72.2094 57.66 71.3374 57.996 70.2654 57.996C69.1934 57.996 68.3134 57.66 67.6254 56.988C66.9534 56.316 66.6174 55.396 66.6174 54.228ZM81.2574 50.796L71.6814 67.5H68.9934L78.5694 50.796H81.2574ZM70.2654 52.14C69.2574 52.14 68.7534 52.836 68.7534 54.228C68.7534 55.636 69.2574 56.34 70.2654 56.34C70.7454 56.34 71.1134 56.172 71.3694 55.836C71.6414 55.484 71.7774 54.948 71.7774 54.228C71.7774 52.836 71.2734 52.14 70.2654 52.14ZM76.3854 64.044C76.3854 62.876 76.7214 61.964 77.3934 61.308C78.0814 60.636 78.9614 60.3 80.0334 60.3C81.0894 60.3 81.9534 60.636 82.6254 61.308C83.3134 61.964 83.6574 62.876 83.6574 64.044C83.6574 65.212 83.3134 66.132 82.6254 66.804C81.9534 67.476 81.0894 67.812 80.0334 67.812C78.9614 67.812 78.0814 67.476 77.3934 66.804C76.7214 66.132 76.3854 65.212 76.3854 64.044ZM80.0094 61.956C79.0014 61.956 78.4974 62.652 78.4974 64.044C78.4974 65.436 79.0014 66.132 80.0094 66.132C81.0174 66.132 81.5214 65.436 81.5214 64.044C81.5214 62.652 81.0174 61.956 80.0094 61.956Z" fill="black"/>
</svg>
