<svg width="41" height="32" viewBox="0 0 41 32" fill="none" xmlns="http://www.w3.org/2000/svg">
<path d="M37.3681 27.416C41.1421 23.32 40.7621 18.06 40.7501 18V2C40.7501 1.46957 40.5394 0.96086 40.1643 0.585787C39.7892 0.210714 39.2805 0 38.7501 0H26.7501C24.5441 0 22.7501 1.794 22.7501 4V18C22.7501 18.5304 22.9608 19.0391 23.3359 19.4142C23.7109 19.7893 24.2197 20 24.7501 20H30.9061C30.8629 20.9886 30.5676 21.9498 30.0481 22.792C29.0321 24.394 27.1181 25.488 24.3561 26.04L22.7501 26.36V32H24.7501C30.3161 32 34.5621 30.458 37.3681 27.416ZM15.3541 27.416C19.1301 23.32 18.7481 18.06 18.7361 18V2C18.7361 1.46957 18.5254 0.96086 18.1503 0.585787C17.7752 0.210714 17.2665 0 16.7361 0H4.73608C2.53008 0 0.736084 1.794 0.736084 4V18C0.736084 18.5304 0.946798 19.0391 1.32187 19.4142C1.69694 19.7893 2.20565 20 2.73608 20H8.89208C8.84894 20.9886 8.55358 21.9498 8.03408 22.792C7.01808 24.394 5.10408 25.488 2.34208 26.04L0.736084 26.36V32H2.73608C8.30208 32 12.5481 30.458 15.3541 27.416Z" fill="#D5D7DA"/>
</svg>
