<svg width="142" height="32" viewBox="0 0 142 32" fill="none" xmlns="http://www.w3.org/2000/svg">
<path fill-rule="evenodd" clip-rule="evenodd" d="M18.0196 1.57251L0.600098 7.51965V24.1716L6.87665 22.0288V11.7542L18.0196 7.94989V1.57251Z" fill="#F5F5F5"/>
<path fill-rule="evenodd" clip-rule="evenodd" d="M9.48071 13.3166L26.9002 7.36944V24.0214L9.48071 29.9686V13.3166Z" fill="#F5F5F5"/>
<path d="M41.62 18.2187L35.8173 9.00267H39.1667L43.668 16.384H41.748L46.2494 9.00267H49.556L43.6894 18.2187H41.62ZM41.236 24V16.6613H44.1587V24H41.236ZM52.9092 24.2133C51.871 24.2133 50.9323 23.9787 50.0932 23.5093C49.2683 23.0258 48.607 22.3787 48.1092 21.568C47.6256 20.7431 47.3839 19.8258 47.3839 18.816C47.3839 17.8062 47.6256 16.9031 48.1092 16.1067C48.5927 15.296 49.2541 14.656 50.0932 14.1867C50.9323 13.7031 51.8639 13.4613 52.8879 13.4613C53.9403 13.4613 54.879 13.7031 55.7039 14.1867C56.543 14.656 57.2043 15.296 57.6879 16.1067C58.1714 16.9031 58.4132 17.8062 58.4132 18.816C58.4132 19.8258 58.1714 20.7431 57.6879 21.568C57.2043 22.3787 56.543 23.0258 55.7039 23.5093C54.879 23.9787 53.9474 24.2133 52.9092 24.2133ZM52.8879 21.6107C53.4141 21.6107 53.8763 21.4969 54.2745 21.2693C54.687 21.0276 54.9999 20.7004 55.2132 20.288C55.4407 19.8613 55.5545 19.3778 55.5545 18.8373C55.5545 18.2969 55.4407 17.8204 55.2132 17.408C54.9856 16.9956 54.6727 16.6756 54.2745 16.448C53.8763 16.2062 53.4141 16.0853 52.8879 16.0853C52.3759 16.0853 51.9207 16.2062 51.5225 16.448C51.1243 16.6756 50.8114 16.9956 50.5839 17.408C50.3563 17.8204 50.2425 18.2969 50.2425 18.8373C50.2425 19.3778 50.3563 19.8613 50.5839 20.288C50.8114 20.7004 51.1243 21.0276 51.5225 21.2693C51.9207 21.4969 52.3759 21.6107 52.8879 21.6107ZM64.607 24.2133C63.6968 24.2133 62.8861 24.0213 62.175 23.6373C61.4781 23.2533 60.9306 22.72 60.5324 22.0373C60.1341 21.3547 59.935 20.5653 59.935 19.6693V13.696H62.751V19.6053C62.751 20.032 62.8221 20.4018 62.9644 20.7147C63.1066 21.0133 63.3199 21.2409 63.6044 21.3973C63.8888 21.5538 64.223 21.632 64.607 21.632C65.1901 21.632 65.6452 21.4542 65.9724 21.0987C66.2995 20.7431 66.463 20.2453 66.463 19.6053V13.696H69.2577V19.6693C69.2577 20.5796 69.0586 21.376 68.6604 22.0587C68.2764 22.7413 67.7288 23.2747 67.0177 23.6587C66.3208 24.0284 65.5172 24.2133 64.607 24.2133ZM71.4832 24V13.696H74.2778V24H71.4832ZM74.2778 18.304L73.1898 17.5787C73.3178 16.3129 73.6876 15.3173 74.2992 14.592C74.9107 13.8524 75.7925 13.4827 76.9445 13.4827C77.4423 13.4827 77.8903 13.568 78.2885 13.7387C78.6867 13.8951 79.0494 14.1582 79.3765 14.528L77.6272 16.5333C77.4707 16.3627 77.2787 16.2347 77.0512 16.1493C76.8379 16.064 76.589 16.0213 76.3045 16.0213C75.7072 16.0213 75.2165 16.2133 74.8325 16.5973C74.4627 16.9671 74.2778 17.536 74.2778 18.304ZM85.1985 24V9.00267H88.0999V24H85.1985ZM87.3319 24V21.4187H94.9692V24H87.3319ZM101.326 24.2133C100.288 24.2133 99.349 23.9787 98.5099 23.5093C97.685 23.0258 97.0236 22.3787 96.5259 21.568C96.0423 20.7431 95.8005 19.8258 95.8005 18.816C95.8005 17.8062 96.0423 16.9031 96.5259 16.1067C97.0094 15.296 97.6707 14.656 98.5099 14.1867C99.349 13.7031 100.281 13.4613 101.305 13.4613C102.357 13.4613 103.296 13.7031 104.121 14.1867C104.96 14.656 105.621 15.296 106.105 16.1067C106.588 16.9031 106.83 17.8062 106.83 18.816C106.83 19.8258 106.588 20.7431 106.105 21.568C105.621 22.3787 104.96 23.0258 104.121 23.5093C103.296 23.9787 102.364 24.2133 101.326 24.2133ZM101.305 21.6107C101.831 21.6107 102.293 21.4969 102.691 21.2693C103.104 21.0276 103.417 20.7004 103.63 20.288C103.857 19.8613 103.971 19.3778 103.971 18.8373C103.971 18.2969 103.857 17.8204 103.63 17.408C103.402 16.9956 103.089 16.6756 102.691 16.448C102.293 16.2062 101.831 16.0853 101.305 16.0853C100.793 16.0853 100.337 16.2062 99.9392 16.448C99.541 16.6756 99.2281 16.9956 99.0005 17.408C98.773 17.8204 98.6592 18.2969 98.6592 18.8373C98.6592 19.3778 98.773 19.8613 99.0005 20.288C99.2281 20.7004 99.541 21.0276 99.9392 21.2693C100.337 21.4969 100.793 21.6107 101.305 21.6107ZM112.938 28.5653C111.843 28.5653 110.876 28.3662 110.037 27.968C109.198 27.584 108.529 27.0364 108.032 26.3253L109.802 24.5547C110.201 25.024 110.641 25.3796 111.125 25.6213C111.623 25.8773 112.22 26.0053 112.917 26.0053C113.785 26.0053 114.467 25.7849 114.965 25.344C115.477 24.9031 115.733 24.2916 115.733 23.5093V20.928L116.202 18.6667L115.754 16.4053V13.696H118.528V23.4667C118.528 24.4907 118.286 25.3796 117.802 26.1333C117.333 26.9013 116.679 27.4987 115.84 27.9253C115.001 28.352 114.033 28.5653 112.938 28.5653ZM112.81 23.7227C111.886 23.7227 111.054 23.5022 110.314 23.0613C109.575 22.6062 108.992 21.9876 108.565 21.2053C108.153 20.4231 107.946 19.5484 107.946 18.5813C107.946 17.6142 108.153 16.7467 108.565 15.9787C108.992 15.2107 109.575 14.6062 110.314 14.1653C111.054 13.7102 111.886 13.4827 112.81 13.4827C113.578 13.4827 114.254 13.632 114.837 13.9307C115.434 14.2293 115.904 14.6418 116.245 15.168C116.586 15.68 116.771 16.2844 116.8 16.9813V20.224C116.771 20.9067 116.579 21.5182 116.224 22.0587C115.882 22.5849 115.413 22.9973 114.816 23.296C114.233 23.5804 113.564 23.7227 112.81 23.7227ZM113.365 21.184C113.877 21.184 114.318 21.0773 114.688 20.864C115.072 20.6364 115.37 20.3307 115.584 19.9467C115.797 19.5484 115.904 19.1004 115.904 18.6027C115.904 18.0907 115.797 17.6427 115.584 17.2587C115.37 16.8747 115.072 16.576 114.688 16.3627C114.318 16.1351 113.877 16.0213 113.365 16.0213C112.853 16.0213 112.405 16.1351 112.021 16.3627C111.637 16.576 111.338 16.8818 111.125 17.28C110.912 17.664 110.805 18.1049 110.805 18.6027C110.805 19.0862 110.912 19.5271 111.125 19.9253C111.338 20.3093 111.637 20.6151 112.021 20.8427C112.405 21.0702 112.853 21.184 113.365 21.184ZM125.826 24.2133C124.788 24.2133 123.849 23.9787 123.01 23.5093C122.185 23.0258 121.524 22.3787 121.026 21.568C120.542 20.7431 120.301 19.8258 120.301 18.816C120.301 17.8062 120.542 16.9031 121.026 16.1067C121.509 15.296 122.171 14.656 123.01 14.1867C123.849 13.7031 124.781 13.4613 125.805 13.4613C126.857 13.4613 127.796 13.7031 128.621 14.1867C129.46 14.656 130.121 15.296 130.605 16.1067C131.088 16.9031 131.33 17.8062 131.33 18.816C131.33 19.8258 131.088 20.7431 130.605 21.568C130.121 22.3787 129.46 23.0258 128.621 23.5093C127.796 23.9787 126.864 24.2133 125.826 24.2133ZM125.805 21.6107C126.331 21.6107 126.793 21.4969 127.191 21.2693C127.604 21.0276 127.917 20.7004 128.13 20.288C128.357 19.8613 128.471 19.3778 128.471 18.8373C128.471 18.2969 128.357 17.8204 128.13 17.408C127.902 16.9956 127.589 16.6756 127.191 16.448C126.793 16.2062 126.331 16.0853 125.805 16.0853C125.293 16.0853 124.837 16.2062 124.439 16.448C124.041 16.6756 123.728 16.9956 123.501 17.408C123.273 17.8204 123.159 18.2969 123.159 18.8373C123.159 19.3778 123.273 19.8613 123.501 20.288C123.728 20.7004 124.041 21.0276 124.439 21.2693C124.837 21.4969 125.293 21.6107 125.805 21.6107Z" fill="white"/>
</svg>
