<svg width="150" height="48" viewBox="0 0 150 48" fill="none" xmlns="http://www.w3.org/2000/svg">
<path fill-rule="evenodd" clip-rule="evenodd" d="M44 24V34.2489L43.9975 34.7785C43.9614 38.4667 43.539 39.8831 42.7756 41.3105C41.9767 42.8044 40.8044 43.9767 39.3105 44.7756L39.1112 44.8799C37.6799 45.6115 36.1534 46 32.2489 46H22V24H44Z" fill="url(#paint0_linear_16411_3812)"/>
<path fill-rule="evenodd" clip-rule="evenodd" d="M39.3105 3.22436C40.8044 4.02327 41.9767 5.19563 42.7756 6.68946L42.8799 6.88879C43.6115 8.32014 44 9.84662 44 13.7511V24H22V2H32.2489C36.335 2 37.8167 2.42545 39.3105 3.22436Z" fill="url(#paint1_linear_16411_3812)"/>
<path fill-rule="evenodd" clip-rule="evenodd" d="M22 2V46H11.7511L11.2215 45.9975C7.53328 45.9614 6.11689 45.539 4.68946 44.7756C3.19563 43.9767 2.02327 42.8044 1.22436 41.3105L1.12006 41.1112C0.388473 39.6799 0 38.1534 0 34.2489V13.7511C0 9.66501 0.425451 8.18328 1.22436 6.68946C2.02327 5.19563 3.19563 4.02327 4.68946 3.22436L4.88879 3.12005C6.32014 2.38847 7.84662 2 11.7511 2H22Z" fill="url(#paint2_linear_16411_3812)"/>
<path fill-rule="evenodd" clip-rule="evenodd" d="M75.0289 18.5651C74.5689 17.9409 73.9694 17.4851 73.2302 17.1976C72.491 16.9101 71.7682 16.7664 71.0619 16.7664C70.1584 16.7664 69.3371 16.9307 68.5979 17.2592C67.8587 17.5877 67.2221 18.0395 66.6883 18.6144C66.1544 19.1893 65.7437 19.8628 65.4563 20.6349C65.1688 21.4069 65.0251 22.2447 65.0251 23.1482C65.0251 24.1009 65.1647 24.9715 65.4439 25.76C65.7232 26.5485 66.1215 27.2261 66.639 27.7928C67.1564 28.3595 67.7765 28.7989 68.4993 29.111C69.2221 29.4231 70.0352 29.5792 70.9387 29.5792C71.875 29.5792 72.7045 29.3944 73.4273 29.0248C74.1501 28.6552 74.7332 28.1665 75.1767 27.5587L77.6654 29.3082C76.8933 30.2773 75.9488 31.0288 74.8318 31.5627C73.7148 32.0966 72.4088 32.3635 70.914 32.3635C69.5506 32.3635 68.2981 32.1377 67.1564 31.6859C66.0148 31.2342 65.0333 30.6018 64.2119 29.7886C63.3906 28.9755 62.75 28.0064 62.29 26.8811C61.8301 25.7559 61.6001 24.5116 61.6001 23.1482C61.6001 21.7519 61.8424 20.4912 62.327 19.3659C62.8116 18.2407 63.4768 17.2838 64.3228 16.4954C65.1688 15.7069 66.1667 15.0991 67.3166 14.672C68.4664 14.2449 69.7149 14.0314 71.0619 14.0314C71.6204 14.0314 72.2035 14.0847 72.8113 14.1915C73.4191 14.2983 74.0022 14.4626 74.5607 14.6843C75.1192 14.9061 75.6449 15.1812 76.1377 15.5098C76.6305 15.8383 77.0494 16.2325 77.3943 16.6925L75.0289 18.5651ZM79.4887 13.2922H82.4455V31.92H79.4887V13.2922ZM93.4913 24.8237C93.4913 24.4459 93.4379 24.0845 93.3311 23.7395C93.2243 23.3946 93.056 23.0907 92.826 22.8278C92.596 22.565 92.3045 22.3556 91.9513 22.1995C91.5981 22.0435 91.1833 21.9654 90.707 21.9654C89.8199 21.9654 89.0684 22.2324 88.4524 22.7662C87.8364 23.3001 87.4956 23.9859 87.4298 24.8237H93.4913ZM96.4481 26.1542V26.5485C96.4481 26.6799 96.4399 26.8113 96.4234 26.9427H87.4298C87.4627 27.3698 87.5736 27.7599 87.7625 28.1131C87.9514 28.4663 88.2019 28.7702 88.514 29.0248C88.8261 29.2794 89.1793 29.4806 89.5735 29.6285C89.9678 29.7763 90.3784 29.8502 90.8055 29.8502C91.5447 29.8502 92.1689 29.7147 92.6782 29.4437C93.1874 29.1726 93.6063 28.7989 93.9348 28.3226L95.906 29.8995C94.7397 31.4765 93.0478 32.265 90.8302 32.265C89.9103 32.265 89.0643 32.1212 88.2922 31.8338C87.5202 31.5463 86.8508 31.1397 86.2841 30.6141C85.7174 30.0884 85.2739 29.4437 84.9535 28.6798C84.6332 27.916 84.473 27.0495 84.473 26.0803C84.473 25.1276 84.6332 24.2611 84.9535 23.4808C85.2739 22.7005 85.7133 22.0353 86.2718 21.485C86.8303 20.9347 87.4914 20.5076 88.2553 20.2037C89.0191 19.8998 89.8446 19.7478 90.7316 19.7478C91.5529 19.7478 92.3127 19.8834 93.0108 20.1544C93.7089 20.4254 94.3126 20.8279 94.8218 21.3618C95.3311 21.8956 95.7294 22.5609 96.0169 23.3576C96.3044 24.1543 96.4481 25.0865 96.4481 26.1542ZM106.501 30.417H106.427C106.132 30.9426 105.655 31.3738 104.998 31.7106C104.341 32.0473 103.594 32.2157 102.756 32.2157C102.28 32.2157 101.783 32.1541 101.265 32.0309C100.748 31.9077 100.271 31.7023 99.8361 31.4149C99.4008 31.1274 99.0394 30.7496 98.7519 30.2814C98.4645 29.8133 98.3207 29.2342 98.3207 28.5443C98.3207 27.6573 98.5712 26.9509 99.0722 26.4253C99.5733 25.8996 100.218 25.4972 101.006 25.2179C101.795 24.9387 102.67 24.7539 103.631 24.6635C104.592 24.5732 105.532 24.528 106.452 24.528V24.2323C106.452 23.4931 106.185 22.9469 105.651 22.5938C105.117 22.2406 104.481 22.064 103.742 22.064C103.117 22.064 102.518 22.1954 101.943 22.4582C101.368 22.7211 100.891 23.0414 100.514 23.4192L98.986 21.6205C99.6595 20.9963 100.436 20.5281 101.314 20.216C102.193 19.9039 103.084 19.7478 103.988 19.7478C105.039 19.7478 105.906 19.8957 106.587 20.1914C107.269 20.487 107.807 20.8731 108.201 21.3494C108.596 21.8258 108.871 22.3597 109.027 22.951C109.183 23.5424 109.261 24.1338 109.261 24.7251V31.92H106.501V30.417ZM106.452 26.5238H105.787C105.31 26.5238 104.809 26.5444 104.284 26.5854C103.758 26.6265 103.273 26.7169 102.83 26.8565C102.386 26.9961 102.017 27.1932 101.721 27.4478C101.425 27.7025 101.278 28.0515 101.278 28.495C101.278 28.7743 101.339 29.0084 101.462 29.1973C101.586 29.3862 101.746 29.5381 101.943 29.6531C102.14 29.7681 102.362 29.8502 102.608 29.8995C102.854 29.9488 103.101 29.9734 103.347 29.9734C104.366 29.9734 105.138 29.7024 105.663 29.1603C106.189 28.6182 106.452 27.879 106.452 26.9427V26.5238ZM111.83 20.0928H114.664V22.064H114.713C115.042 21.3741 115.502 20.8156 116.093 20.3885C116.685 19.9614 117.374 19.7478 118.163 19.7478C118.278 19.7478 118.401 19.7519 118.533 19.7602C118.664 19.7684 118.779 19.7889 118.878 19.8218V22.5322C118.68 22.4829 118.512 22.45 118.372 22.4336C118.233 22.4172 118.097 22.409 117.966 22.409C117.292 22.409 116.75 22.5322 116.34 22.7786C115.929 23.025 115.609 23.3206 115.379 23.6656C115.149 24.0106 114.993 24.3637 114.91 24.7251C114.828 25.0865 114.787 25.374 114.787 25.5875V31.92H111.83V20.0928ZM123.806 13.2922V21.5958H123.879C124.027 21.3987 124.216 21.1934 124.446 20.9798C124.676 20.7663 124.951 20.5692 125.272 20.3885C125.592 20.2078 125.966 20.0558 126.393 19.9326C126.82 19.8094 127.304 19.7478 127.846 19.7478C128.684 19.7478 129.456 19.908 130.163 20.2283C130.869 20.5486 131.477 20.988 131.986 21.5466C132.495 22.1051 132.889 22.7621 133.169 23.5178C133.448 24.2734 133.588 25.0865 133.588 25.9571C133.588 26.8277 133.452 27.645 133.181 28.4088C132.91 29.1726 132.524 29.8379 132.023 30.4046C131.522 30.9714 130.914 31.4231 130.2 31.7598C129.485 32.0966 128.676 32.265 127.773 32.265C126.935 32.265 126.15 32.0843 125.419 31.7229C124.688 31.3615 124.118 30.8358 123.707 30.1459H123.658V31.92H120.849V13.2922H123.806ZM130.582 25.9571C130.582 25.4972 130.512 25.0413 130.372 24.5896C130.232 24.1379 130.023 23.7313 129.744 23.3699C129.465 23.0085 129.111 22.717 128.684 22.4952C128.257 22.2734 127.756 22.1626 127.181 22.1626C126.639 22.1626 126.155 22.2775 125.727 22.5075C125.3 22.7375 124.935 23.0332 124.631 23.3946C124.327 23.7559 124.097 24.1666 123.941 24.6266C123.785 25.0865 123.707 25.5464 123.707 26.0064C123.707 26.4663 123.785 26.9222 123.941 27.3739C124.097 27.8257 124.327 28.2322 124.631 28.5936C124.935 28.955 125.3 29.2466 125.727 29.4683C126.155 29.6901 126.639 29.801 127.181 29.801C127.756 29.801 128.257 29.686 128.684 29.456C129.111 29.226 129.465 28.9303 129.744 28.569C130.023 28.2076 130.232 27.7969 130.372 27.337C130.512 26.877 130.582 26.4171 130.582 25.9571ZM135.615 20.0928H138.572V31.92H135.615V20.0928ZM135.196 16.0765C135.196 15.6001 135.373 15.1853 135.726 14.8322C136.079 14.479 136.527 14.3024 137.069 14.3024C137.611 14.3024 138.067 14.4708 138.436 14.8075C138.806 15.1443 138.991 15.5673 138.991 16.0765C138.991 16.5857 138.806 17.0087 138.436 17.3454C138.067 17.6822 137.611 17.8506 137.069 17.8506C136.527 17.8506 136.079 17.674 135.726 17.3208C135.373 16.9676 135.196 16.5529 135.196 16.0765ZM140.469 22.4582V20.0928H142.539V16.6678H145.446V20.0928H148.403V22.4582H145.446V27.953C145.446 28.4786 145.541 28.9139 145.73 29.2589C145.919 29.6038 146.342 29.7763 146.999 29.7763C147.196 29.7763 147.409 29.7558 147.639 29.7147C147.869 29.6736 148.075 29.6121 148.255 29.5299L148.354 31.8461C148.091 31.9446 147.779 32.0227 147.418 32.0802C147.056 32.1376 146.711 32.1664 146.383 32.1664C145.594 32.1664 144.954 32.0555 144.461 31.8338C143.968 31.612 143.578 31.3081 143.29 30.9221C143.003 30.536 142.806 30.0925 142.699 29.5915C142.592 29.0905 142.539 28.5525 142.539 27.9776V22.4582H140.469Z" fill="#27282A"/>
<defs>
<linearGradient id="paint0_linear_16411_3812" x1="33" y1="24" x2="44" y2="46" gradientUnits="userSpaceOnUse">
<stop stop-color="#DEF2FE"/>
<stop offset="1" stop-color="#DBF1FE"/>
</linearGradient>
<linearGradient id="paint1_linear_16411_3812" x1="22" y1="2" x2="33" y2="24" gradientUnits="userSpaceOnUse">
<stop stop-color="#57BCFD"/>
<stop offset="1" stop-color="#51B5FD"/>
</linearGradient>
<linearGradient id="paint2_linear_16411_3812" x1="8.25" y1="2" x2="26.95" y2="39.4" gradientUnits="userSpaceOnUse">
<stop stop-color="#1CA7FD"/>
<stop offset="1" stop-color="#148CFC"/>
</linearGradient>
</defs>
</svg>
