<svg width="168" height="48" viewBox="0 0 168 48" fill="none" xmlns="http://www.w3.org/2000/svg">
<path fill-rule="evenodd" clip-rule="evenodd" d="M44.6462 10.1058L30.4001 37.9553H17.0191L22.981 26.4133H22.7136C17.795 32.7982 10.4564 37.0014 0 37.9553V26.5731C0 26.5731 6.6892 26.178 10.6216 22.0436H0V10.1061H11.9375V19.9245L12.2055 19.9234L17.0836 10.1061H26.1116V19.8622L26.3796 19.8618L31.4406 10.1058H44.6462Z" fill="#146EF5"/>
<path d="M122.331 34.8813H126.175V12.8134H122.331V34.8813Z" fill="#080808"/>
<path fill-rule="evenodd" clip-rule="evenodd" d="M101.136 34.6559C101.972 35.0034 102.821 35.1769 103.685 35.1769C105.112 35.1769 106.389 34.8296 107.516 34.1349C108.642 33.4402 109.515 32.4824 110.135 31.262C110.755 30.0321 111.064 28.6379 111.064 27.0794C111.064 25.5208 110.745 24.1267 110.107 22.8967C109.468 21.6668 108.581 20.7139 107.445 20.0379C106.309 19.3526 105.018 19.0146 103.572 19.024C102.652 19.024 101.77 19.2023 100.925 19.5591C100.08 19.9159 99.3757 20.4229 98.8123 21.0801C98.7688 21.1301 98.7266 21.1806 98.6856 21.2317V12.8275H94.8269V34.8813H98.6575L98.6497 32.8211C98.7489 32.9425 98.8547 33.0612 98.9673 33.1772C99.5776 33.8063 100.3 34.2992 101.136 34.6559ZM105.079 31.093C104.45 31.4778 103.732 31.6704 102.925 31.6704C102.127 31.6704 101.394 31.4732 100.728 31.0789C100.061 30.6751 99.5306 30.126 99.1362 29.4312C98.7514 28.7365 98.5589 27.9478 98.5589 27.0653C98.5495 26.1828 98.7373 25.3941 99.1222 24.6994C99.5165 23.9952 100.047 23.4507 100.714 23.0657C101.38 22.6714 102.117 22.479 102.925 22.4883C103.732 22.479 104.45 22.6667 105.079 23.0517C105.718 23.4272 106.206 23.967 106.544 24.6712C106.891 25.3659 107.065 26.164 107.065 27.0653C107.065 27.9666 106.891 28.7646 106.544 29.4594C106.206 30.1541 105.718 30.6986 105.079 31.093Z" fill="#080808"/>
<path d="M50.2161 14.1513H54.6099L58.5404 28.5055L62.7217 14.1513H66.3832L70.918 28.2175L74.6921 14.1513H78.7198L72.7768 34.8813H68.9884L64.3774 21.1398L60.1445 34.8813H56.3139L50.2161 14.1513Z" fill="#080808"/>
<path fill-rule="evenodd" clip-rule="evenodd" d="M85.2083 35.2475C83.6779 35.2568 82.2979 34.9187 81.0679 34.2334C79.8475 33.5387 78.8851 32.5763 78.181 31.3465C77.4862 30.1165 77.1388 28.713 77.1388 27.1357C77.1388 25.6054 77.4956 24.2205 78.2091 22.9812C78.9226 21.742 79.8897 20.7749 81.1101 20.0802C82.3307 19.3854 83.692 19.038 85.1943 19.038C86.8842 19.038 88.3629 19.4136 89.6303 20.1647C90.9072 20.9157 91.8601 21.9814 92.4891 23.3615C93.1275 24.7322 93.3576 26.3048 93.1792 28.0792H81.1162C81.1499 28.7861 81.3262 29.4294 81.6454 30.0085C82.0021 30.647 82.4998 31.1446 83.138 31.5014C83.7765 31.8581 84.4901 32.0365 85.2787 32.0365C85.8796 32.0272 86.4382 31.9238 86.9545 31.7268C87.4709 31.5202 87.9075 31.2432 88.2644 30.8959C88.6304 30.5484 88.8886 30.1541 89.0388 29.7129H93.0666C92.8225 30.7925 92.3343 31.7549 91.6019 32.5999C90.8696 33.4354 89.9495 34.0879 88.8417 34.5574C87.7337 35.0267 86.5226 35.2568 85.2083 35.2475ZM81.6594 24.2064C81.4344 24.5988 81.2786 25.0213 81.1918 25.4739H89.188C89.13 24.9021 88.9535 24.381 88.6585 23.9107C88.3207 23.3568 87.8606 22.9296 87.2785 22.6292C86.6964 22.3194 86.0392 22.1644 85.3069 22.1644C84.5277 22.1644 83.8189 22.3428 83.1804 22.6996C82.542 23.0564 82.0349 23.5586 81.6594 24.2064Z" fill="#080808"/>
<path d="M113.895 19.362C113.895 18.1039 114.182 16.9866 114.754 16.0102C115.327 15.0244 116.13 14.2593 117.162 13.7147C118.204 13.1608 119.42 12.8744 120.81 12.8557V16.2778C120.162 16.2872 119.608 16.4233 119.148 16.6862C118.697 16.9397 118.35 17.3105 118.106 17.7987C117.881 18.2482 117.76 18.7693 117.742 19.362H120.725V22.6151H117.74V34.8813H113.895V22.6151H111.416V19.362H113.895Z" fill="#080808"/>
<path fill-rule="evenodd" clip-rule="evenodd" d="M135.949 35.2193C134.381 35.2193 132.977 34.8765 131.738 34.1912C130.508 33.4965 129.541 32.5387 128.837 31.3184C128.142 30.0884 127.795 28.6942 127.795 27.1357C127.795 25.5678 128.142 24.1689 128.837 22.939C129.541 21.6997 130.508 20.7374 131.738 20.052C132.977 19.3666 134.381 19.024 135.949 19.024C137.526 19.024 138.934 19.3666 140.174 20.052C141.422 20.7374 142.394 21.695 143.089 22.9249C143.783 24.1548 144.136 25.5584 144.145 27.1357C144.136 28.6942 143.783 30.0884 143.089 31.3184C142.403 32.5387 141.436 33.4965 140.188 34.1912C138.939 34.8765 137.526 35.2193 135.949 35.2193ZM135.949 31.6845C136.775 31.6845 137.507 31.4967 138.146 31.1211C138.784 30.7362 139.277 30.201 139.624 29.5157C139.972 28.8209 140.145 28.0277 140.145 27.1357C140.145 26.2344 139.972 25.4364 139.624 24.7416C139.277 24.0468 138.784 23.5117 138.146 23.1361C137.507 22.7512 136.775 22.5588 135.949 22.5588C135.132 22.5588 134.404 22.7512 133.766 23.1361C133.137 23.5117 132.649 24.0468 132.301 24.7416C131.954 25.4364 131.785 26.2344 131.794 27.1357C131.794 28.0277 131.968 28.8209 132.315 29.5157C132.672 30.201 133.16 30.7362 133.78 31.1211C134.409 31.4967 135.132 31.6845 135.949 31.6845Z" fill="#080808"/>
<path d="M148.299 19.3619H144.018L148.651 34.8813H152.398L155.445 24.9691L158.735 34.8813H162.425L167.072 19.3619H163.2L160.564 29.0217L157.651 19.3619H153.904L151.005 29.2346L148.299 19.3619Z" fill="#080808"/>
</svg>
