<svg width="151" height="48" viewBox="0 0 151 48" fill="none" xmlns="http://www.w3.org/2000/svg">
<path fill-rule="evenodd" clip-rule="evenodd" d="M11.6605 29.9924L4.96996 23.2712C3.83309 22.129 1.98988 22.129 0.852648 23.2712C-0.284216 24.4132 -0.284216 26.2649 0.852648 27.4073L9.60185 36.1967C10.7387 37.3387 12.5824 37.3387 13.7192 36.1967L21.9542 27.9236L17.8372 23.7873L11.6605 29.9924Z" fill="#16B8A2"/>
<path fill-rule="evenodd" clip-rule="evenodd" d="M36.8789 17.0677L24.0135 29.9921L11.1466 17.0663C10.0094 15.9238 8.16614 15.9238 7.02928 17.0663C5.89242 18.2084 5.89242 20.06 7.02928 21.2025L21.9548 36.1965C23.0917 37.3386 24.935 37.3386 26.0721 36.1965L40.9963 21.204C42.133 20.0615 42.133 18.2098 40.9963 17.0677C39.859 15.9257 38.0157 15.9257 36.8789 17.0677Z" fill="#FFB41F"/>
<path fill-rule="evenodd" clip-rule="evenodd" d="M47.1726 27.4087L38.4248 36.1966C37.288 37.3387 35.4448 37.3387 34.3079 36.1966L13.2057 14.9976C12.0688 13.8555 12.0688 12.0038 13.2057 10.8617C14.3429 9.71927 16.1861 9.71927 17.3229 10.8617L36.3662 29.9923L43.0553 23.2725C44.1925 22.1305 46.0357 22.1305 47.1726 23.2725C48.3094 24.415 48.3094 26.2667 47.1726 27.4087Z" fill="#F56358"/>
<path fill-rule="evenodd" clip-rule="evenodd" d="M34.8198 10.863C33.6828 9.7209 31.8397 9.7209 30.7024 10.863L17.837 23.7875L21.9544 27.9237L34.8198 14.9992C35.9567 13.8567 35.9567 12.0051 34.8198 10.863Z" fill="#16B8A2"/>
<path fill-rule="evenodd" clip-rule="evenodd" d="M63.0968 12.8829H59.5167V34.0097H72.6344V30.8191H63.0968V12.8829ZM80.3827 19.2353C82.5595 19.2353 84.0201 20.1264 84.8222 21.2186L84.9939 19.5227H88.0872V34.0097H84.9939L84.8222 32.3138C84.0201 33.4061 82.5595 34.2971 80.3827 34.2971C76.4588 34.2971 73.7953 31.1065 73.7953 26.7662C73.7953 22.3971 76.4588 19.2353 80.3827 19.2353ZM81.1274 22.2822C78.8933 22.2822 77.2894 24.0356 77.2894 26.7662C77.2894 29.4969 78.8933 31.2503 81.1274 31.2503C82.8458 31.2503 83.877 30.3305 84.6503 29.0944V24.4379C83.877 23.202 82.8458 22.2822 81.1274 22.2822ZM96.7521 14.665H93.3152V19.5227H90.5942V22.4547H93.3152V28.8933C93.3152 32.4 95.4059 34.2971 98.6997 34.2971C100.132 34.2971 101.191 33.8947 101.908 33.4348L100.991 30.7329C100.561 30.9916 99.9312 31.1927 99.0148 31.1927C97.6686 31.1927 96.7521 30.3305 96.7521 28.8645V22.4547H101.106V19.5227H96.7521V14.665ZM108.596 14.665H105.159V19.5227H102.438V22.4547H105.159V28.8933C105.159 32.4 107.25 34.2971 110.544 34.2971C111.976 34.2971 113.035 33.8947 113.752 33.4348L112.835 30.7329C112.405 30.9916 111.775 31.1927 110.859 31.1927C109.513 31.1927 108.596 30.3305 108.596 28.8645V22.4547H112.95V19.5227H108.596V14.665ZM119.495 19.5227H116.058V34.0097H119.495V19.5227ZM117.776 12.7679C116.574 12.7679 115.657 13.659 115.657 14.895C115.657 16.131 116.574 17.022 117.776 17.022C119.008 17.022 119.925 16.131 119.925 14.895C119.925 13.659 119.008 12.7679 117.776 12.7679ZM129.879 19.2353C125.439 19.2353 122.489 22.3971 122.489 26.7662C122.489 31.1065 125.468 34.2971 129.907 34.2971C132.513 34.2971 134.489 33.1187 135.778 31.1065L133.315 29.1808C132.628 30.3305 131.511 31.2791 129.936 31.2791C127.387 31.2791 125.983 29.2957 125.983 26.7662C125.983 24.208 127.329 22.2534 129.907 22.2534C131.511 22.2534 132.57 23.1732 133.229 24.323L135.721 22.4259C134.432 20.4138 132.513 19.2353 129.879 19.2353ZM144.185 19.2353C148.625 19.2353 150.802 22.5696 150.802 26.6225V27.8297H140.605C140.692 30.1292 142.066 31.394 144.472 31.394C146.161 31.394 147.393 30.6466 148.052 29.7269L150.429 31.6814C148.997 33.4061 147.107 34.2971 144.444 34.2971C139.976 34.2971 137.111 31.1353 137.111 26.7949C137.111 22.4259 140.033 19.2353 144.185 19.2353ZM144.128 21.9947C142.095 21.9947 140.72 23.3457 140.605 25.3578H147.423C147.336 23.3744 146.191 21.9947 144.128 21.9947Z" fill="#0E0E29"/>
</svg>
