<svg width="26" height="25" viewBox="0 0 26 25" fill="none" xmlns="http://www.w3.org/2000/svg">
<path d="M6.09848 24.158V7.95025H0.716061V24.158H6.09904H6.09848ZM3.40839 5.73774C5.28496 5.73774 6.45325 4.49318 6.45325 2.93782C6.41812 1.34703 5.28496 0.137207 3.44408 0.137207C1.60194 0.137207 0.398804 1.34703 0.398804 2.93768C0.398804 4.49304 1.56667 5.7376 3.37313 5.7376H3.40797L3.40839 5.73774ZM9.07772 24.158H14.4597V15.1078C14.4597 14.6241 14.4948 14.139 14.637 13.7935C15.0259 12.8253 15.9115 11.823 17.3988 11.823C19.3459 11.823 20.1252 13.3092 20.1252 15.4882V24.158H25.5071V14.865C25.5071 9.88685 22.8521 7.57027 19.311 7.57027C16.4078 7.57027 15.1327 9.19439 14.4243 10.3006H14.4601V7.95081H9.078C9.14825 9.47129 9.07758 24.1585 9.07758 24.1585L9.07772 24.158Z" fill="#FDFDFD"/>
</svg>
