<svg width="37" height="37" viewBox="0 0 37 37" fill="none" xmlns="http://www.w3.org/2000/svg">
<path d="M18.8164 36.886C8.8818 36.886 0.795776 28.7999 0.795776 18.8653C0.795776 8.93075 8.8818 0.844727 18.8164 0.844727C28.751 0.844727 36.837 8.93075 36.837 18.8653C36.837 28.7999 28.751 36.886 18.8164 36.886ZM18.8164 3.75128C10.4804 3.75128 3.70233 10.5294 3.70233 18.8653C3.70233 27.2013 10.4804 33.9794 18.8164 33.9794C27.1524 33.9794 33.9305 27.2013 33.9305 18.8653C33.9305 10.5294 27.1524 3.75128 18.8164 3.75128Z" fill="#FDFDFD"/>
<path d="M13.5855 17.0922C10.1791 17.0922 6.49356 16.5864 2.5639 15.5633C1.78495 15.3599 1.3199 14.5693 1.52336 13.7903C1.72682 13.0114 2.5174 12.5463 3.29636 12.7498C15.2016 15.8424 24.52 13.8834 30.2401 7.09365C30.7575 6.48327 31.6759 6.40189 32.2863 6.91926C32.9025 7.43662 32.9781 8.35509 32.4607 8.96547C27.9207 14.3542 21.503 17.0922 13.5855 17.0922Z" fill="#FDFDFD"/>
<path d="M6.31939 31.1952C5.98223 31.1952 5.65089 31.0789 5.37767 30.8464C4.7673 30.3232 4.69754 29.4047 5.2149 28.7944C13.7137 18.8598 24.712 16.4996 35.3907 22.3302C36.0941 22.7138 36.3557 23.5974 35.972 24.3008C35.5884 25.0042 34.7048 25.2658 34.0014 24.8821C21.1777 17.889 11.8477 25.5158 7.42388 30.6894C7.13904 31.0208 6.73212 31.1952 6.31939 31.1952Z" fill="#FDFDFD"/>
<path d="M23.5771 36.189C23.5248 36.189 23.4725 36.189 23.4202 36.1832C22.6238 36.096 22.0483 35.381 22.1355 34.5788C23.269 24.1849 20.595 13.7039 14.1948 3.41471C13.7704 2.73458 13.9797 1.83936 14.6598 1.41501C15.34 0.990651 16.2352 1.19992 16.6595 1.88006C23.4144 12.7331 26.2279 23.842 25.0246 34.8985C24.9374 35.6426 24.3096 36.189 23.5771 36.189Z" fill="#FDFDFD"/>
</svg>
