<svg width="31" height="31" viewBox="0 0 31 31" fill="none" xmlns="http://www.w3.org/2000/svg">
<path d="M10.0071 15.0768C10.0071 12.313 12.2463 10.072 15.0093 10.072C17.7723 10.072 20.0127 12.313 20.0127 15.0768C20.0127 17.8406 17.7723 20.0817 15.0093 20.0817C12.2463 20.0817 10.0071 17.8406 10.0071 15.0768ZM7.30236 15.0768C7.30236 19.3346 10.7528 22.786 15.0093 22.786C19.2659 22.786 22.7162 19.3346 22.7162 15.0768C22.7162 10.819 19.2659 7.36764 15.0093 7.36764C10.7528 7.36764 7.30236 10.819 7.30236 15.0768ZM21.2203 7.06197C21.2201 7.41829 21.3256 7.76666 21.5234 8.06301C21.7212 8.35936 22.0024 8.59039 22.3314 8.72688C22.6605 8.86337 23.0226 8.89919 23.372 8.82981C23.7214 8.76044 24.0424 8.58898 24.2944 8.33712C24.5464 8.08527 24.718 7.76432 24.7877 7.41487C24.8573 7.06543 24.8218 6.70317 24.6856 6.37392C24.5494 6.04466 24.3187 5.7632 24.0226 5.56512C23.7265 5.36704 23.3783 5.26124 23.0221 5.26109H23.0214C22.5439 5.26132 22.086 5.4511 21.7483 5.78876C21.4106 6.12642 21.2207 6.58435 21.2203 7.06197ZM8.94567 27.2973C7.48235 27.2306 6.687 26.9868 6.15844 26.7808C5.4577 26.508 4.95772 26.183 4.43204 25.6578C3.90637 25.1327 3.58097 24.6331 3.30937 23.9322C3.10333 23.4037 2.85958 22.6079 2.79306 21.1441C2.7203 19.5616 2.70577 19.0862 2.70577 15.0769C2.70577 11.0676 2.7215 10.5936 2.79306 9.00974C2.8597 7.546 3.10525 6.75174 3.30937 6.22171C3.58217 5.52076 3.90709 5.02064 4.43204 4.49481C4.957 3.96899 5.4565 3.6435 6.15844 3.37181C6.68676 3.16571 7.48235 2.9219 8.94567 2.85536C10.5277 2.78257 11.003 2.76804 15.0093 2.76804C19.0156 2.76804 19.4914 2.78377 21.0747 2.85536C22.5381 2.92202 23.3321 3.16763 23.862 3.37181C24.5627 3.6435 25.0627 3.96971 25.5884 4.49481C26.114 5.01992 26.4382 5.52076 26.711 6.22171C26.9171 6.75017 27.1608 7.546 27.2274 9.00974C27.3001 10.5936 27.3146 11.0676 27.3146 15.0769C27.3146 19.0862 27.3001 19.5603 27.2274 21.1441C27.1607 22.6079 26.9158 23.4034 26.711 23.9322C26.4382 24.6331 26.1133 25.1332 25.5884 25.6578C25.0634 26.1825 24.5627 26.508 23.862 26.7808C23.3337 26.9869 22.5381 27.2308 21.0747 27.2973C19.4927 27.3701 19.0174 27.3846 15.0093 27.3846C11.0012 27.3846 10.5273 27.3701 8.94567 27.2973ZM8.8214 0.154397C7.2236 0.227182 6.13178 0.480607 5.17829 0.851737C4.19082 1.235 3.35488 1.74917 2.51954 2.58343C1.6842 3.4177 1.17149 4.2552 0.788338 5.24296C0.417315 6.19732 0.163963 7.28885 0.0911997 8.88711C0.0172353 10.4879 0.000305176 10.9997 0.000305176 15.0768C0.000305176 19.1539 0.0172353 19.6657 0.0911997 21.2665C0.163963 22.8649 0.417315 23.9563 0.788338 24.9107C1.17149 25.8978 1.68432 26.7363 2.51954 27.5702C3.35476 28.4041 4.19082 28.9175 5.17829 29.3019C6.13358 29.673 7.2236 29.9264 8.8214 29.9992C10.4226 30.072 10.9333 30.0901 15.0093 30.0901C19.0853 30.0901 19.5969 30.0732 21.1972 29.9992C22.7951 29.9264 23.8862 29.673 24.8403 29.3019C25.8272 28.9175 26.6637 28.4044 27.4991 27.5702C28.3344 26.7359 28.846 25.8978 29.2303 24.9107C29.6013 23.9563 29.8559 22.8648 29.9274 21.2665C30.0002 19.6645 30.0171 19.1539 30.0171 15.0768C30.0171 10.9997 30.0002 10.4879 29.9274 8.88711C29.8546 7.28873 29.6013 6.19672 29.2303 5.24296C28.846 4.2558 28.3331 3.41902 27.4991 2.58343C26.6651 1.74785 25.8272 1.235 24.8415 0.851737C23.8862 0.480607 22.795 0.225981 21.1984 0.154397C19.5981 0.0816127 19.0865 0.0634766 15.0105 0.0634766C10.9345 0.0634766 10.4226 0.0804116 8.8214 0.154397Z" fill="#FDFDFD"/>
<path d="M10.0071 15.0768C10.0071 12.313 12.2463 10.072 15.0093 10.072C17.7723 10.072 20.0127 12.313 20.0127 15.0768C20.0127 17.8406 17.7723 20.0817 15.0093 20.0817C12.2463 20.0817 10.0071 17.8406 10.0071 15.0768ZM7.30236 15.0768C7.30236 19.3346 10.7528 22.786 15.0093 22.786C19.2659 22.786 22.7162 19.3346 22.7162 15.0768C22.7162 10.819 19.2659 7.36764 15.0093 7.36764C10.7528 7.36764 7.30236 10.819 7.30236 15.0768ZM21.2203 7.06197C21.2201 7.41829 21.3256 7.76666 21.5234 8.06301C21.7212 8.35936 22.0024 8.59039 22.3314 8.72688C22.6605 8.86337 23.0226 8.89919 23.372 8.82981C23.7214 8.76044 24.0424 8.58898 24.2944 8.33712C24.5464 8.08527 24.718 7.76432 24.7877 7.41487C24.8573 7.06543 24.8218 6.70317 24.6856 6.37392C24.5494 6.04466 24.3187 5.7632 24.0226 5.56512C23.7265 5.36704 23.3783 5.26124 23.0221 5.26109H23.0214C22.5439 5.26132 22.086 5.4511 21.7483 5.78876C21.4106 6.12642 21.2207 6.58435 21.2203 7.06197ZM8.94567 27.2973C7.48235 27.2306 6.687 26.9868 6.15844 26.7808C5.4577 26.508 4.95772 26.183 4.43204 25.6578C3.90637 25.1327 3.58097 24.6331 3.30937 23.9322C3.10333 23.4037 2.85958 22.6079 2.79306 21.1441C2.7203 19.5616 2.70577 19.0862 2.70577 15.0769C2.70577 11.0676 2.7215 10.5936 2.79306 9.00974C2.8597 7.546 3.10525 6.75174 3.30937 6.22171C3.58217 5.52076 3.90709 5.02064 4.43204 4.49481C4.957 3.96899 5.4565 3.6435 6.15844 3.37181C6.68676 3.16571 7.48235 2.9219 8.94567 2.85536C10.5277 2.78257 11.003 2.76804 15.0093 2.76804C19.0156 2.76804 19.4914 2.78377 21.0747 2.85536C22.5381 2.92202 23.3321 3.16763 23.862 3.37181C24.5627 3.6435 25.0627 3.96971 25.5884 4.49481C26.114 5.01992 26.4382 5.52076 26.711 6.22171C26.9171 6.75017 27.1608 7.546 27.2274 9.00974C27.3001 10.5936 27.3146 11.0676 27.3146 15.0769C27.3146 19.0862 27.3001 19.5603 27.2274 21.1441C27.1607 22.6079 26.9158 23.4034 26.711 23.9322C26.4382 24.6331 26.1133 25.1332 25.5884 25.6578C25.0634 26.1825 24.5627 26.508 23.862 26.7808C23.3337 26.9869 22.5381 27.2308 21.0747 27.2973C19.4927 27.3701 19.0174 27.3846 15.0093 27.3846C11.0012 27.3846 10.5273 27.3701 8.94567 27.2973ZM8.8214 0.154397C7.2236 0.227182 6.13178 0.480607 5.17829 0.851737C4.19082 1.235 3.35488 1.74917 2.51954 2.58343C1.6842 3.4177 1.17149 4.2552 0.788338 5.24296C0.417315 6.19732 0.163963 7.28885 0.0911997 8.88711C0.0172353 10.4879 0.000305176 10.9997 0.000305176 15.0768C0.000305176 19.1539 0.0172353 19.6657 0.0911997 21.2665C0.163963 22.8649 0.417315 23.9563 0.788338 24.9107C1.17149 25.8978 1.68432 26.7363 2.51954 27.5702C3.35476 28.4041 4.19082 28.9175 5.17829 29.3019C6.13358 29.673 7.2236 29.9264 8.8214 29.9992C10.4226 30.072 10.9333 30.0901 15.0093 30.0901C19.0853 30.0901 19.5969 30.0732 21.1972 29.9992C22.7951 29.9264 23.8862 29.673 24.8403 29.3019C25.8272 28.9175 26.6637 28.4044 27.4991 27.5702C28.3344 26.7359 28.846 25.8978 29.2303 24.9107C29.6013 23.9563 29.8559 22.8648 29.9274 21.2665C30.0002 19.6645 30.0171 19.1539 30.0171 15.0768C30.0171 10.9997 30.0002 10.4879 29.9274 8.88711C29.8546 7.28873 29.6013 6.19672 29.2303 5.24296C28.846 4.2558 28.3331 3.41902 27.4991 2.58343C26.6651 1.74785 25.8272 1.235 24.8415 0.851737C23.8862 0.480607 22.795 0.225981 21.1984 0.154397C19.5981 0.0816127 19.0865 0.0634766 15.0105 0.0634766C10.9345 0.0634766 10.4226 0.0804116 8.8214 0.154397Z" fill="#FDFDFD"/>
</svg>
